<svg width="36" height="35" viewBox="0 0 36 35" fill="none" xmlns="http://www.w3.org/2000/svg">
<g filter="url(#filter0_d_0_19)">
<path fill-rule="evenodd" clip-rule="evenodd" d="M18.8679 11.949V11.9093C18.8592 11.9226 18.8473 11.9359 18.8398 11.949H18.8679Z" fill="white"/>
<path fill-rule="evenodd" clip-rule="evenodd" d="M4 0V26.6035H31.4505V0H4ZM12.5381 22.1015H8.46544V10.2266H12.5381V22.1015ZM10.5018 8.60585H10.4749C9.10868 8.60585 8.22315 7.69367 8.22315 6.55352C8.22315 5.38835 9.13457 4.50201 10.5284 4.50201C11.9226 4.50201 12.7794 5.38835 12.8061 6.55352C12.8061 7.69367 11.9226 8.60585 10.5018 8.60585ZM27.2273 22.1015H23.1536V15.7484C23.1536 14.1527 22.565 13.0635 21.0905 13.0635C19.9645 13.0635 19.2954 13.7969 19.0006 14.5073C18.8935 14.761 18.8655 15.1138 18.8655 15.4696V22.1015H14.7909C14.7909 22.1015 14.8455 11.3407 14.7909 10.2267H18.8655V11.9094C19.4068 11.1021 20.3729 9.9479 22.537 9.9479C25.2179 9.9479 27.2273 11.6447 27.2273 15.2919V22.1015Z" fill="white"/>
</g>
<defs>
<filter id="filter0_d_0_19" x="0" y="0" width="35.4512" height="34.6035" filterUnits="userSpaceOnUse" color-interpolation-filters="sRGB">
<feFlood flood-opacity="0" result="BackgroundImageFix"/>
<feColorMatrix in="SourceAlpha" type="matrix" values="0 0 0 0 0 0 0 0 0 0 0 0 0 0 0 0 0 0 127 0" result="hardAlpha"/>
<feOffset dy="4"/>
<feGaussianBlur stdDeviation="2"/>
<feComposite in2="hardAlpha" operator="out"/>
<feColorMatrix type="matrix" values="0 0 0 0 0 0 0 0 0 0 0 0 0 0 0 0 0 0 0.25 0"/>
<feBlend mode="normal" in2="BackgroundImageFix" result="effect1_dropShadow_0_19"/>
<feBlend mode="normal" in="SourceGraphic" in2="effect1_dropShadow_0_19" result="shape"/>
</filter>
</defs>
</svg>
